<svg width="288" height="219" viewBox="0 0 288 219" fill="none" xmlns="http://www.w3.org/2000/svg">
<g clip-path="url(#clip0_5_94)">
<path d="M232.77 80.2643C243.536 80.2643 252.264 71.5364 252.264 60.77C252.264 50.0035 243.536 41.2756 232.77 41.2756C222.004 41.2756 213.276 50.0035 213.276 60.77C213.276 71.5364 222.004 80.2643 232.77 80.2643Z" fill="#FF6584"/>
<path d="M175.531 140.577C175.531 192.078 142.556 204.276 96.4848 204.276C50.4139 204.276 37.0249 203.061 37.0249 151.559C37.0249 100.057 -22.6867 10.5824 23.3841 10.5824C69.455 10.5824 175.531 89.0747 175.531 140.577Z" fill="#F2F2F2"/>
<path d="M227.159 193.784H74.2224C68.1302 193.784 63.1738 188.827 63.1738 182.735V67.1276C63.1738 61.0354 68.1302 56.079 74.2224 56.079H227.159C233.251 56.079 238.208 61.0354 238.208 67.1276V182.735C238.208 188.827 233.251 193.784 227.159 193.784V193.784ZM74.2224 56.9085C68.5875 56.9085 64.0033 61.4927 64.0033 67.1276V182.735C64.0033 188.37 68.5875 192.954 74.2224 192.954H227.159C232.794 192.954 237.378 188.37 237.378 182.735V67.1276C237.378 61.4927 232.794 56.9085 227.159 56.9085H74.2224V56.9085Z" fill="#3F3D56"/>
<path d="M120.068 185.767C121.799 185.722 123.196 185.459 123.188 185.178C123.181 184.897 121.773 184.705 120.042 184.75C118.312 184.794 116.915 185.058 116.922 185.338C116.929 185.619 118.338 185.811 120.068 185.767Z" fill="#E6E6E6"/>
<path d="M139.928 184.113C141.659 184.068 143.056 183.805 143.048 183.524C143.041 183.243 141.633 183.051 139.902 183.096C138.172 183.14 136.775 183.404 136.782 183.684C136.789 183.965 138.198 184.157 139.928 184.113Z" fill="#3F3D56"/>
<path d="M112.074 182.346C113.804 182.302 115.201 182.038 115.194 181.758C115.187 181.477 113.778 181.285 112.048 181.33C110.317 181.374 108.921 181.637 108.928 181.918C108.935 182.199 110.344 182.391 112.074 182.346Z" fill="#FF6584"/>
<path d="M105.45 180.839C105.453 180.586 104.832 180.374 104.063 180.366C103.294 180.357 102.668 180.555 102.666 180.807C102.663 181.06 103.284 181.272 104.053 181.28C104.822 181.289 105.447 181.091 105.45 180.839Z" fill="#E6E6E6"/>
<path d="M100.592 178.155C100.595 177.903 99.974 177.691 99.205 177.682C98.436 177.674 97.8103 177.871 97.8074 178.124C97.8046 178.376 98.4256 178.588 99.1946 178.597C99.9636 178.606 100.589 178.408 100.592 178.155Z" fill="#3F3D56"/>
<path d="M127.014 181.812C127.016 181.56 126.395 181.348 125.626 181.339C124.857 181.331 124.232 181.528 124.229 181.781C124.226 182.033 124.847 182.245 125.616 182.254C126.385 182.263 127.011 182.065 127.014 181.812Z" fill="#E6E6E6"/>
<path d="M118.01 183.511C118.013 183.258 117.391 183.046 116.622 183.038C115.853 183.029 115.228 183.226 115.225 183.479C115.222 183.732 115.843 183.943 116.612 183.952C117.381 183.961 118.007 183.763 118.01 183.511Z" fill="#FF6584"/>
<path d="M132.933 184.767C132.936 184.515 132.315 184.303 131.546 184.294C130.777 184.285 130.151 184.483 130.148 184.736C130.145 184.988 130.766 185.2 131.535 185.209C132.304 185.217 132.93 185.02 132.933 184.767Z" fill="#3F3D56"/>
<path d="M182.699 184.937C184.429 184.893 185.826 184.629 185.819 184.348C185.812 184.067 184.403 183.876 182.673 183.92C180.942 183.964 179.545 184.228 179.553 184.509C179.56 184.79 180.969 184.981 182.699 184.937Z" fill="#E6E6E6"/>
<path d="M202.559 183.283C204.29 183.239 205.686 182.975 205.679 182.694C205.672 182.413 204.263 182.222 202.533 182.266C200.803 182.31 199.406 182.574 199.413 182.855C199.42 183.136 200.829 183.327 202.559 183.283Z" fill="#3F3D56"/>
<path d="M174.705 181.517C176.435 181.472 177.832 181.209 177.825 180.928C177.818 180.647 176.409 180.456 174.679 180.5C172.948 180.544 171.551 180.808 171.559 181.089C171.566 181.37 172.974 181.561 174.705 181.517Z" fill="#FF6584"/>
<path d="M168.081 180.009C168.084 179.757 167.463 179.545 166.694 179.536C165.925 179.527 165.299 179.725 165.296 179.978C165.293 180.23 165.915 180.442 166.684 180.451C167.453 180.459 168.078 180.262 168.081 180.009Z" fill="#E6E6E6"/>
<path d="M163.223 177.326C163.226 177.073 162.605 176.862 161.836 176.853C161.067 176.844 160.441 177.042 160.438 177.294C160.435 177.547 161.056 177.759 161.825 177.767C162.594 177.776 163.22 177.578 163.223 177.326Z" fill="#3F3D56"/>
<path d="M189.644 180.983C189.647 180.73 189.026 180.518 188.257 180.51C187.488 180.501 186.862 180.699 186.86 180.951C186.857 181.204 187.478 181.415 188.247 181.424C189.016 181.433 189.642 181.235 189.644 180.983Z" fill="#E6E6E6"/>
<path d="M180.64 182.681C180.643 182.428 180.022 182.217 179.253 182.208C178.484 182.199 177.858 182.397 177.856 182.65C177.853 182.902 178.474 183.114 179.243 183.123C180.012 183.131 180.638 182.934 180.64 182.681Z" fill="#FF6584"/>
<path d="M195.564 183.938C195.566 183.685 194.945 183.473 194.176 183.465C193.407 183.456 192.782 183.654 192.779 183.906C192.776 184.159 193.397 184.37 194.166 184.379C194.935 184.388 195.561 184.19 195.564 183.938Z" fill="#3F3D56"/>
<path d="M105.128 162.003C104.068 162.069 103.483 160.752 104.285 159.984L104.364 159.667C104.354 159.642 104.343 159.616 104.333 159.591C103.261 157.035 99.6274 157.052 98.5645 159.612C97.6211 161.885 96.42 164.161 96.1242 166.563C95.9916 167.624 96.0513 168.704 96.2866 169.745C94.0761 164.916 92.9128 159.643 92.9128 154.341C92.9128 153.008 92.9857 151.676 93.1348 150.347C93.2575 149.26 93.4265 148.18 93.6452 147.109C94.8284 141.323 97.3902 135.811 101.085 131.208C102.862 130.237 104.343 128.719 105.238 126.899C105.56 126.243 105.811 125.537 105.931 124.818C105.729 124.845 105.168 121.766 105.321 121.577C105.039 121.149 104.535 120.937 104.227 120.52C102.697 118.445 100.589 118.807 99.4881 121.627C97.1368 122.813 97.1141 124.781 98.5568 126.674C99.4746 127.878 99.6007 129.508 100.406 130.797C100.323 130.903 100.237 131.006 100.154 131.112C98.6348 133.06 97.3207 135.155 96.2129 137.356C96.526 134.91 96.0638 131.964 95.2758 130.064C94.3787 127.9 92.6974 126.078 91.2168 124.207C89.4383 121.96 85.7914 122.941 85.4781 125.789C85.4751 125.817 85.4721 125.844 85.4692 125.872C85.6891 125.996 85.9046 126.128 86.115 126.267C87.3155 127.061 86.9006 128.922 85.4782 129.141L85.446 129.146C85.5256 129.938 85.6615 130.724 85.8603 131.496C83.9608 138.842 88.0616 141.517 93.917 141.637C94.0462 141.704 94.1722 141.77 94.3014 141.833C93.7082 143.503 93.2343 145.217 92.883 146.953C92.5681 148.488 92.3494 150.039 92.2268 151.596C92.0743 153.562 92.0876 155.537 92.2533 157.499L92.2433 157.429C91.8225 155.269 90.6492 153.25 88.9458 151.852C86.4081 149.767 82.8228 148.999 80.0851 147.324C78.7673 146.517 77.0786 147.559 77.3086 149.087C77.3122 149.112 77.3159 149.136 77.3197 149.161C77.7274 149.326 78.1251 149.518 78.5095 149.734C78.7294 149.858 78.9449 149.99 79.1553 150.129C80.3558 150.923 79.9409 152.784 78.5185 153.003L78.4863 153.008C78.4631 153.012 78.4432 153.015 78.42 153.018C79.1193 154.679 80.0937 156.22 81.3133 157.549C82.5009 163.961 87.602 164.57 93.0586 162.702H93.0619C93.6585 165.3 94.5301 167.839 95.6503 170.258H104.897C104.93 170.156 104.96 170.05 104.99 169.947C104.135 170 103.273 169.95 102.431 169.794C103.117 168.953 103.803 168.104 104.489 167.262C104.506 167.246 104.519 167.229 104.532 167.213C104.88 166.782 105.231 166.354 105.579 165.923L105.58 165.923C105.601 164.6 105.443 163.282 105.129 162.003L105.128 162.003V162.003Z" fill="#744775"/>
<path d="M196.162 162.003C197.222 162.069 197.808 160.752 197.006 159.984L196.926 159.667C196.936 159.642 196.947 159.616 196.958 159.591C198.03 157.035 201.663 157.052 202.726 159.612C203.669 161.885 204.87 164.161 205.166 166.563C205.299 167.624 205.239 168.704 205.004 169.745C207.214 164.916 208.377 159.643 208.377 154.341C208.377 153.008 208.304 151.676 208.155 150.347C208.033 149.26 207.864 148.18 207.645 147.109C206.462 141.323 203.9 135.811 200.205 131.208C198.428 130.237 196.947 128.719 196.052 126.899C195.731 126.243 195.479 125.537 195.359 124.818C195.562 124.845 196.122 121.766 195.969 121.577C196.251 121.149 196.755 120.937 197.063 120.52C198.593 118.445 200.701 118.807 201.802 121.627C204.153 122.813 204.176 124.781 202.733 126.674C201.816 127.878 201.689 129.508 200.884 130.797C200.967 130.903 201.053 131.006 201.136 131.112C202.655 133.06 203.969 135.155 205.077 137.356C204.764 134.91 205.226 131.964 206.014 130.064C206.911 127.9 208.593 126.078 210.073 124.207C211.852 121.96 215.499 122.941 215.812 125.789C215.815 125.817 215.818 125.844 215.821 125.872C215.601 125.996 215.386 126.128 215.175 126.267C213.975 127.061 214.39 128.922 215.812 129.141L215.844 129.146C215.765 129.938 215.629 130.724 215.43 131.496C217.329 138.842 213.229 141.517 207.373 141.637C207.244 141.704 207.118 141.77 206.989 141.833C207.582 143.503 208.056 145.217 208.407 146.953C208.722 148.488 208.941 150.039 209.063 151.596C209.216 153.562 209.203 155.537 209.037 157.499L209.047 157.429C209.468 155.269 210.641 153.25 212.344 151.852C214.882 149.767 218.467 148.999 221.205 147.324C222.523 146.517 224.212 147.559 223.982 149.087C223.978 149.112 223.974 149.136 223.97 149.161C223.563 149.326 223.165 149.518 222.781 149.734C222.561 149.858 222.345 149.99 222.135 150.129C220.934 150.923 221.349 152.784 222.772 153.003L222.804 153.008C222.827 153.012 222.847 153.015 222.87 153.018C222.171 154.679 221.196 156.22 219.977 157.549C218.789 163.961 213.688 164.57 208.232 162.702H208.228C207.632 165.3 206.76 167.839 205.64 170.258H196.393C196.36 170.156 196.33 170.05 196.301 169.947C197.156 170 198.017 169.95 198.859 169.794C198.173 168.953 197.487 168.104 196.801 167.262C196.784 167.246 196.771 167.229 196.758 167.213C196.41 166.782 196.059 166.354 195.711 165.923L195.71 165.923C195.689 164.6 195.847 163.282 196.161 162.003L196.162 162.003V162.003Z" fill="#744775"/>
<path d="M17.3674 170.308C17.3674 170.582 17.5872 170.802 17.861 170.802H281.362C281.636 170.802 281.856 170.582 281.856 170.308C281.856 170.034 281.636 169.815 281.362 169.815H17.861C17.5872 169.815 17.3674 170.034 17.3674 170.308V170.308Z" fill="#3F3D56"/>
<path d="M37.3107 36.0852H26.1118C24.9684 36.0852 24.038 35.1548 24.038 34.0114C24.038 32.8679 24.9684 31.9375 26.1118 31.9375H37.3107C38.4542 31.9375 39.3846 32.8679 39.3846 34.0114C39.3846 35.1548 38.4542 36.0852 37.3107 36.0852Z" fill="#E6E6E6"/>
<path d="M211.327 35.6705C212.358 35.6705 213.193 34.8348 213.193 33.804C213.193 32.7732 212.358 31.9375 211.327 31.9375C210.296 31.9375 209.46 32.7732 209.46 33.804C209.46 34.8348 210.296 35.6705 211.327 35.6705Z" fill="#E6E6E6"/>
<path d="M217.134 35.6705C218.164 35.6705 219 34.8348 219 33.804C219 32.7732 218.164 31.9375 217.134 31.9375C216.103 31.9375 215.267 32.7732 215.267 33.804C215.267 34.8348 216.103 35.6705 217.134 35.6705Z" fill="#E6E6E6"/>
<path d="M222.94 35.6705C223.971 35.6705 224.807 34.8348 224.807 33.804C224.807 32.7732 223.971 31.9375 222.94 31.9375C221.91 31.9375 221.074 32.7732 221.074 33.804C221.074 34.8348 221.91 35.6705 222.94 35.6705Z" fill="#E6E6E6"/>
<path d="M287.438 117.588V209.589C287.438 214.778 283.215 219 278.026 219H207.457L208.112 218.17L286.608 118.642L287.438 117.588V117.588Z" fill="#F2F2F2"/>
<path d="M278.026 0H9.41119C4.22238 0 0 4.22238 0 9.41119V209.589C0 214.778 4.22238 219 9.41119 219H278.026C283.215 219 287.437 214.778 287.437 209.589V9.41119C287.437 4.22238 283.215 0 278.026 0ZM286.608 209.589C286.608 214.328 282.766 218.17 278.026 218.17H9.41119C4.67168 218.17 0.829545 214.328 0.829545 209.589V65.3995C0.829545 29.7385 29.7385 0.829545 65.3995 0.829545H278.026C282.766 0.829545 286.608 4.67168 286.608 9.41119V209.589Z" fill="#E6E6E6"/>
<path d="M165.239 113.168L163.971 93.5332C163.854 91.8028 162.371 90.4862 160.639 90.5757V90.5757C158.821 90.6696 157.454 92.2689 157.644 94.079L159.586 114.434L160.244 126.852C159.277 127.325 158.635 128.341 158.694 129.484C158.773 131.011 160.075 132.185 161.602 132.106C163.129 132.027 164.303 130.725 164.224 129.198C164.195 128.64 164.002 128.131 163.696 127.711L165.239 113.168H165.239Z" fill="#FFB6B6"/>
<path d="M166.033 111.54C166.325 111.232 166.352 110.775 166.136 110.41C166.008 110.193 165.943 109.939 165.966 109.688C165.97 109.639 165.978 97.9775 165.989 97.9298C166.121 97.3397 165.997 96.7329 165.593 96.2824C164.946 95.5592 164.606 94.4413 164.44 93.4399C164.258 92.344 164.133 91.2218 163.695 90.2013C163.062 88.7291 161.63 87.4484 159.765 88.1532C158.974 88.4521 158.328 89.0474 157.904 89.7796C157.017 91.3152 157.072 93.1313 157.141 94.8682L156.778 94.194C156.888 96.0833 156.611 97.9943 155.969 99.7747C156.387 99.6779 156.705 111.846 156.584 112.258C156.462 112.669 156.096 112.95 155.784 113.245C155.39 113.616 155.026 114.159 155.427 114.69C155.619 114.945 155.927 115.091 156.246 115.121C159.231 115.403 162.273 115.057 165.12 114.115C165.754 113.906 166.432 113.621 166.745 113.031C167.058 112.44 166.701 111.507 166.033 111.54H166.033Z" fill="#744775"/>
<path d="M138.068 184.85L135.248 185.955L129.55 175.363L133.712 173.733L138.068 184.85Z" fill="#FFB6B6"/>
<path d="M130.862 192.933C131.136 193.629 131.92 193.972 132.617 193.7L138.222 191.503L138.404 189.128L139.563 190.976L141.679 190.148L138.293 183.255L137.54 183.501L134.465 184.496L133.474 184.819L134.265 186.837L131 191.683C130.751 192.052 130.7 192.519 130.862 192.933H130.862Z" fill="#2F2E41"/>
<path d="M166.84 211.749L163.812 211.811L162.124 199.903L166.593 199.811L166.84 211.749Z" fill="#FFB6B6"/>
<path d="M157.285 216.844C157.301 217.591 157.919 218.185 158.666 218.17L164.686 218.045L165.677 215.879L166.126 218.014L168.398 217.968L167.601 210.33L166.81 210.3L163.581 210.172L162.539 210.133L162.584 212.299L157.845 215.719C157.485 215.979 157.276 216.4 157.285 216.844H157.285Z" fill="#2F2E41"/>
<path d="M142.323 112.932L162.234 116.409L161.485 120.156C161.485 120.156 162.734 121.727 162.234 122.315C161.735 122.903 160.736 121.904 161.735 122.903C162.734 123.902 163.054 124.172 161.555 125.67C160.057 127.169 162.472 124.774 162.472 124.774C162.472 124.774 162.587 127.532 163.168 128.397C167.186 134.385 166.107 139.739 164.053 146.651C162.891 150.563 165.287 158.102 165.287 159.48L165.052 169.131C165.052 169.131 170.298 190.362 167.55 200.353L167.938 204.196L161.555 204.35L154.062 174.377C154.062 174.377 152.888 171.373 152.851 170.252C152.813 169.131 152.813 170.13 152.813 169.131C152.813 168.132 152.563 167.133 152.563 166.883C152.563 166.634 150.565 142.209 150.565 142.209C150.565 142.209 143.235 146.252 142.486 147.002C141.737 147.751 140.402 147.066 140.412 147.831C140.422 148.597 139.725 148.875 139.168 149.49C138.611 150.106 137.694 148.865 138.193 150.613C138.693 152.362 131.561 155.02 130.812 155.769C130.063 156.519 136.679 161.934 135.85 172.303L135.435 176.451L130.043 178.939L118.527 157.486C117.336 154.915 117.742 151.887 119.569 149.72L135.85 130.411C135.85 130.411 137.827 120.924 139.575 119.925L142.323 112.932V112.932Z" fill="#2F2E41"/>
<path d="M161.201 114.3C161.376 113.554 159.932 108.418 160.546 106.602C160.948 105.413 161.915 104.537 161.903 103.12C161.903 103.028 161.898 102.933 161.885 102.836C161.88 102.785 161.87 102.734 161.862 102.683C163.113 98.2301 163.738 89.9522 163.738 89.9522L157.756 82.8183C157.752 82.7875 157.747 82.7574 157.744 82.7261C157.621 81.6721 156.733 82.4371 155.759 81.8825C155.324 81.6378 155.551 79.6364 155.049 79.7738C155.031 79.7785 155.016 79.7854 154.999 79.7907L154.983 79.7738L153.997 78.7122L148.568 78.2126L147.307 79.9336L147.306 79.946C146.231 80.1452 145.955 80.2632 145.791 81.4548C145.761 81.6796 145.741 81.9044 145.734 82.1316C145.697 82.9816 141.253 83.8344 141.457 84.6428L139.997 85.6155C139.997 85.6155 134.514 92.4499 136.512 94.4481C137.272 95.2075 137.669 96.4688 137.831 97.8401C137.837 97.8865 137.847 97.9281 137.855 97.9718C137.626 98.7071 137.307 99.956 137.829 100.225C138.759 100.705 140.762 114.663 138.646 115.659C133.633 118.019 147.081 122.665 152.431 122.948C154 123.03 155.871 122.94 157.369 122.521L162.395 122.945L161.98 120.456C165.582 120.149 161.021 115.075 161.201 114.3H161.201Z" fill="#744775"/>
<path d="M118.41 76.4678L133.065 89.0821C134.147 90.4965 136.164 90.7814 137.595 89.7221H137.595C139.097 88.6104 139.36 86.4662 138.17 85.0252L122.528 72.177L117.35 58.4565C117.909 57.5035 117.882 56.2691 117.183 55.3248C116.249 54.0627 114.469 53.7968 113.207 54.7308C111.945 55.6649 111.679 57.4451 112.613 58.7071C112.954 59.1679 113.408 59.4942 113.909 59.6795L118.41 76.4678V76.4678Z" fill="#FFB6B6"/>
<path d="M118.627 78.5714C118.552 79.0003 128.328 86.8731 128.72 87.0629C128.953 87.1754 129.152 87.3562 129.275 87.5835C129.299 87.6278 129.32 87.6735 129.338 87.7203C129.56 88.3003 130.01 88.7493 130.611 88.9059C131.575 89.1573 132.501 89.9208 133.211 90.6836C133.988 91.5184 134.732 92.4077 135.686 93.0322C137.063 93.9329 139.014 94.2166 140.211 92.5551C140.718 91.8504 140.933 90.9743 140.88 90.1076C140.768 88.2899 139.691 86.7672 138.646 85.3204L139.339 85.6911C138.173 84.1367 135.989 83.7392 135.528 81.8516C135.226 82.1716 134.639 81.8774 134.509 81.4563C134.38 81.0353 124.994 73.1213 125.094 72.6922C125.22 72.1514 125.223 71.4797 124.579 71.2527C124.27 71.1435 123.924 71.1939 123.634 71.3488C120.92 72.8013 119.849 73.4284 117.947 75.8493C117.524 76.3889 117.105 77.0167 117.172 77.6995C117.239 78.3824 118.075 78.9786 118.627 78.5713V78.5714Z" fill="#744775"/>
<path d="M149.965 78.6582C154.71 78.6582 158.556 74.8119 158.556 70.0673C158.556 65.3227 154.71 61.4764 149.965 61.4764C145.221 61.4764 141.374 65.3227 141.374 70.0673C141.374 74.8119 145.221 78.6582 149.965 78.6582Z" fill="#FFB6B6"/>
<path d="M66.7585 75.5427H22.2249C20.8439 75.5427 19.7213 76.6653 19.7213 78.0463C19.7213 79.4273 20.8439 80.5499 22.2249 80.5499H66.7585C68.1395 80.5499 69.2621 79.4273 69.2621 78.0463C69.2621 76.6653 68.1395 75.5427 66.7585 75.5427V75.5427Z" fill="#E6E6E6"/>
<path d="M47.3496 61.5049H22.2249C20.8439 61.5049 19.7213 62.6275 19.7213 64.0085C19.7213 65.3895 20.8439 66.5121 22.2249 66.5121H47.3496C48.7306 66.5121 49.8531 65.3895 49.8531 64.0085C49.8531 62.6275 48.7306 61.5049 47.3496 61.5049V61.5049Z" fill="#E6E6E6"/>
<path d="M66.7585 150.617H22.2249C20.8439 150.617 19.7213 151.739 19.7213 153.12C19.7213 154.501 20.8439 155.624 22.2249 155.624H66.7585C68.1395 155.624 69.2621 154.501 69.2621 153.12C69.2621 151.739 68.1395 150.617 66.7585 150.617V150.617Z" fill="#E6E6E6"/>
<path d="M47.3496 136.579H22.2249C20.8439 136.579 19.7213 137.701 19.7213 139.082C19.7213 140.463 20.8439 141.586 22.2249 141.586H47.3496C48.7306 141.586 49.8531 140.463 49.8531 139.082C49.8531 137.701 48.7306 136.579 47.3496 136.579V136.579Z" fill="#E6E6E6"/>
<path d="M259.011 211.207C259.868 211.26 260.341 210.196 259.693 209.575L259.629 209.319C259.637 209.298 259.646 209.278 259.654 209.257C260.521 207.191 263.458 207.205 264.317 209.275C265.079 211.111 266.05 212.951 266.289 214.893C266.397 215.75 266.348 216.624 266.158 217.465C267.945 213.562 268.885 209.299 268.885 205.013C268.885 203.936 268.826 202.859 268.706 201.785C268.607 200.906 268.47 200.033 268.293 199.168C267.337 194.49 265.266 190.035 262.279 186.314C260.843 185.529 259.646 184.302 258.922 182.831C258.662 182.301 258.459 181.73 258.362 181.149C258.526 181.17 258.978 178.682 258.855 178.529C259.083 178.183 259.491 178.012 259.739 177.674C260.976 175.997 262.681 176.29 263.57 178.569C265.471 179.528 265.489 181.119 264.323 182.649C263.581 183.623 263.479 184.94 262.828 185.982C262.895 186.067 262.965 186.151 263.032 186.236C264.26 187.812 265.322 189.505 266.218 191.283C265.965 189.307 266.338 186.925 266.975 185.39C267.7 183.641 269.059 182.167 270.256 180.655C271.694 178.839 274.642 179.631 274.895 181.934C274.897 181.956 274.9 181.979 274.902 182.001C274.724 182.101 274.55 182.208 274.38 182.32C273.41 182.962 273.745 184.466 274.895 184.644L274.921 184.648C274.857 185.288 274.747 185.923 274.586 186.547C276.122 192.485 272.807 194.648 268.074 194.745C267.969 194.798 267.867 194.852 267.763 194.903C268.242 196.253 268.625 197.638 268.909 199.042C269.164 200.282 269.341 201.536 269.44 202.795C269.563 204.384 269.552 205.98 269.418 207.566L269.426 207.51C269.767 205.763 270.715 204.132 272.092 203.001C274.143 201.316 277.041 200.696 279.254 199.341C280.32 198.689 281.685 199.532 281.499 200.767L281.49 200.826C281.16 200.96 280.839 201.115 280.528 201.289C280.35 201.39 280.176 201.496 280.006 201.609C279.036 202.25 279.371 203.755 280.521 203.932L280.547 203.936C280.566 203.939 280.582 203.942 280.6 203.944C280.035 205.286 279.248 206.532 278.262 207.606C277.302 212.79 273.178 213.282 268.767 211.772H268.765C268.283 213.872 267.578 215.925 266.672 217.88H259.198C259.171 217.797 259.147 217.711 259.123 217.628C259.814 217.671 260.511 217.631 261.191 217.505C260.637 216.825 260.082 216.139 259.528 215.458C259.514 215.445 259.504 215.432 259.493 215.418C259.212 215.07 258.928 214.724 258.646 214.376L258.646 214.376C258.629 213.307 258.757 212.241 259.011 211.207L259.011 211.207V211.207Z" fill="white"/>
<path d="M159.617 65.9555C160.819 61.5744 147.722 57.8174 145.176 61.3456C144.823 60.844 143.515 60.5393 142.915 60.6932C142.314 60.847 141.81 61.2317 141.317 61.6041C140.64 62.1242 139.939 62.6627 139.523 63.4105C139.105 64.1553 139.04 65.1708 139.603 65.8171C140.049 66.331 140.834 69.062 141.504 69.1974C141.972 69.2928 142.366 69.3697 142.705 69.4251C143.006 68.985 143.775 68.4322 143.72 67.8998C144.175 68.2014 144.009 68.732 143.917 69.2743C143.611 71.0801 136.722 85.0586 140.668 80.9394C141.059 81.1702 141.542 81.3857 142.099 81.5826C143.044 80.1578 143.819 78.4775 144.33 76.7203L144.334 76.7528C144.51 78.2798 145.626 79.5328 147.102 79.9606C153.025 81.6764 157.816 79.1587 159.464 74.6183C158.86 73.3935 158.597 73.5265 158.652 73.4901C159.405 72.9825 160.44 73.3145 160.763 74.163C160.859 74.4132 160.946 74.6268 161.021 74.7876C161.879 71.7163 162.901 72.1596 159.617 65.9555H159.617Z" fill="#2F2E41"/>
<path d="M155.531 62.777L154.926 59.684C154.875 59.424 154.827 59.1419 154.944 58.9043C155.095 58.5991 155.482 58.4726 155.819 58.5212C156.156 58.5699 156.408 58.8776 156.743 58.9369C157.908 59.1429 159.449 57.9918 159.866 60.9039C160.041 62.1181 161.978 62.2463 162.625 63.2884C163.272 64.3304 163.352 65.8345 162.468 66.6858C161.763 67.3657 160.631 67.4442 159.715 67.0969C158.799 66.7496 158.064 66.048 157.421 65.3082C156.779 64.5684 156.198 63.7679 155.457 63.1267" fill="#2F2E41"/>
<path d="M160.078 67.4813C157.715 67.1511 156.104 66.2916 155.29 64.9267C154.225 63.1401 154.939 61.1729 154.97 61.09L155.469 61.2757C155.462 61.2938 154.815 63.0946 155.751 64.6584C156.479 65.8749 157.96 66.6471 160.152 66.9534L160.078 67.4813V67.4813Z" fill="#744775"/>
</g>
<defs>
<clipPath id="clip0_5_94">
<rect width="287.438" height="219" fill="white"/>
</clipPath>
</defs>
</svg>
