<svg width="455" height="589" viewBox="0 0 455 589" fill="none" xmlns="http://www.w3.org/2000/svg">
<g clip-path="url(#clip0_6_42)">
<path d="M40.833 522.281C40.9624 522.281 41.0926 522.28 41.2224 522.278L384.489 517.975C403.999 517.704 419.714 500.479 419.577 479.549C443.811 393.232 454.489 325.261 454.197 259.177C453.892 190.203 441.2 120.04 414.256 38.3856C413.943 17.5946 398.066 0.853638 378.723 0.853638C378.598 0.853638 378.473 0.854478 378.348 0.855729L35.0807 5.16779C15.5258 5.4386 -0.209991 22.7358 0.0020752 43.726V43.7269L0.696747 107.657L1.21289 107.664L5.31113 484.613C5.56219 505.47 21.4601 522.281 40.833 522.281ZM378.724 2.56808C397.24 2.56808 412.43 18.6289 412.662 38.55L412.663 38.6919L412.708 38.8255C464.16 194.692 465.549 309.924 418.013 479.178L417.978 479.303L417.979 479.435C418.173 499.482 403.141 516.002 384.469 516.26L41.2044 520.564C41.0805 520.566 40.9561 520.566 40.8322 520.566C22.331 520.566 7.14758 504.511 6.90784 484.592L3.12378 136.698L3.10739 134.985L2.66846 95.2058L2.15894 95.2012L1.59875 43.7067C1.39606 23.6608 16.4251 7.14089 35.1001 6.88221L378.365 2.57017C378.484 2.56892 378.606 2.56808 378.724 2.56808Z" fill="#F2F2F2"/>
<path d="M71.3281 367.815L71.352 369.53H267.431V367.815H71.3281Z" fill="#F2F2F2"/>
<path d="M70.9369 331.383L70.9529 333.098H267.431V331.383H70.9369Z" fill="#F2F2F2"/>
<path d="M70.5377 294.951L70.5536 296.666H267.431V294.951H70.5377Z" fill="#F2F2F2"/>
<path d="M71.7672 407.59L71.7832 409.305H271.806V229.374L270.209 229.391V337.067C270.209 348.09 267.854 358.523 263.655 367.815C263.391 368.389 263.128 368.964 262.848 369.53C251.911 392.143 229.892 407.59 204.52 407.59H71.7672Z" fill="#F2F2F2"/>
<path d="M349.151 497.041C368.305 496.777 383.646 479.916 383.444 459.349C429.063 296.925 431.92 181.42 378.132 18.4638C378.024 11.9786 376.323 5.63939 373.201 0.0872137L379.955 0.00211729C399.11 -0.21476 414.814 16.2569 415.06 36.8232C468.849 199.779 465.992 315.284 420.373 477.708C420.575 498.275 405.234 515.137 386.08 515.4L42.8129 519.709C30.4008 519.82 18.8858 512.781 12.6389 501.265L349.151 497.041Z" fill="#F2F2F2"/>
<path d="M298.076 302.804C297.528 306.494 300.33 309.934 303.809 309.828L315.354 337.768L323.337 336.239L309.398 303.162C309.17 300.408 307.221 298.074 304.561 297.648C301.444 297.149 298.541 299.457 298.076 302.804Z" fill="#FFB6B6"/>
<path d="M360.562 388.642L360.562 388.642C357.267 392.301 351.929 392.694 348.2 389.553L320.883 366.546L307.349 321.356L317.189 316.469L335.676 356.058L359.185 373.576C363.872 377.068 364.527 384.238 360.562 388.642V388.642Z" fill="#744775"/>
<path d="M354.62 372.95C355.331 372.427 356.089 371.964 356.872 371.57C356.856 371.347 356.848 371.115 356.848 370.893C356.808 368.638 357.223 366.384 358.069 364.318C357.958 366.135 358.477 367.987 359.498 369.435C359.674 369.693 359.866 369.933 360.073 370.164C360.129 370.224 360.185 370.284 360.241 370.335C361.367 370.061 362.532 369.933 363.69 369.95C364.975 369.975 366.253 370.164 367.522 370.43C369.111 370.755 370.692 371.21 372.272 371.587C372.368 371.613 372.456 371.63 372.552 371.656C373.278 369.538 374.42 367.601 375.905 366.007C375.194 367.652 375.051 369.581 375.514 371.33C375.594 371.638 375.689 371.938 375.809 372.23C377.534 372.419 379.258 372.367 380.911 371.853C381.613 371.638 382.276 371.347 382.923 371.004C385.206 369.804 387.266 368.021 389.621 366.949C390.89 366.367 392.232 366.007 393.605 365.861C394.754 358.789 394.435 352.514 390.906 347.979C390.906 337.632 383.09 329.24 373.454 329.24L365.454 332.223L357.375 335.241C353.575 346.128 347.531 355.711 354.62 372.95Z" fill="#2F2E41"/>
<path d="M341.741 568.95L336.269 571.736L323.432 549.895L331.509 545.782L341.741 568.95Z" fill="#FFB6B6"/>
<path d="M328.585 584.64L334.429 573.772L332.571 569.568L334.504 568.729L340.5 566.139L341.968 565.5L349.68 579.763L345.574 581.851L343.004 578.064L342.971 583.179L332.091 588.72C330.739 589.407 329.123 588.784 328.484 587.338C328.103 586.476 328.141 585.468 328.585 584.64Z" fill="#2F2E41"/>
<path d="M260.93 485.764L256.565 481.256L271.043 460.631L277.485 467.284L260.93 485.764Z" fill="#FFB6B6"/>
<path d="M242.605 478.11L254.14 480.129L257.145 476.775L258.56 478.418L262.939 483.522L264.015 484.77L254.324 497.565L251.051 494.181L253.44 490.26L248.972 492.037L240.293 483.075C239.216 481.961 239.186 480.117 240.22 478.964C240.836 478.276 241.727 477.957 242.605 478.11Z" fill="#2F2E41"/>
<path d="M353.383 448.394L374.939 443.251L374.794 450.293C374.794 450.293 397.293 468.967 376.536 486.969C355.778 504.971 320.65 506.685 320.65 506.685L336.617 556.404L328.634 559.833L297.2 513.742C292.967 505.478 294.164 495.066 300.469 488.501C301.689 487.231 303.086 486.112 304.683 485.255C314.263 480.111 339.811 469.825 339.811 469.825L352.585 456.109L353.383 448.394Z" fill="#2F2E41"/>
<path d="M354.181 461.252L309.907 431.001C304.939 427.606 298.468 428.208 294.118 432.47L260.772 471.539L269.554 479.254L303.884 453.537C303.884 453.537 323.843 477.54 329.432 477.54C335.02 477.54 354.181 461.252 354.181 461.252H354.181Z" fill="#2F2E41"/>
<path d="M378.132 463.696C378.132 463.696 391.73 455.421 385.33 448.414C378.931 441.408 378.132 419.255 378.132 419.255L388.511 385.689L380.527 379.688L378.132 369.53L363.762 368.672V376.259L349.366 393.372C344.474 399.188 342.996 407.44 345.531 414.788L349.391 425.978C349.391 425.978 338.214 457.695 347.794 461.981C357.375 466.267 378.132 463.696 378.132 463.696Z" fill="#744775"/>
<path d="M306.218 340.918L343.978 304.737C349.682 299.306 350.206 289.939 345.148 283.815C340.09 277.691 331.366 277.129 325.663 282.559L325.598 282.622L287.837 318.803C282.166 324.272 281.697 333.642 286.791 339.732C291.862 345.795 300.54 346.324 306.218 340.918H306.218Z" fill="#F2F2F2"/>
<path d="M367.559 365.833C359.631 365.833 353.205 358.933 353.205 350.421C353.205 341.909 359.631 335.009 367.559 335.009C375.486 335.009 381.913 341.909 381.913 350.421C381.913 358.933 375.486 365.833 367.559 365.833Z" fill="#FFB6B6"/>
<path d="M360.081 347.242C360.185 345.45 360.592 343.676 361.263 342.03C361.151 343.847 361.67 345.699 362.692 347.148C362.716 347.182 362.74 347.208 362.756 347.242C365.394 348.618 369.843 347.84 374.141 347.242V330.098H365.358C356.736 326.977 349.639 333.767 349.391 347.242C353.528 348.047 357.405 348.487 360.081 347.242Z" fill="#2F2E41"/>
<path d="M367.522 370.43C369.111 370.755 370.692 371.21 372.272 371.587C372.368 371.613 372.456 371.63 372.552 371.655C373.278 369.538 374.42 367.601 375.905 366.006C375.194 367.652 375.051 369.581 375.514 371.33C375.593 371.638 375.689 371.938 375.809 372.23C377.534 372.418 379.258 372.367 380.911 371.853C381.613 371.638 382.276 371.347 382.922 371.004V334.384H366.157C372.663 346.282 373.59 358.283 367.522 370.43Z" fill="#2F2E41"/>
<path d="M370.69 327.571C370.996 326.541 372.164 326.05 373.16 326.216C374.155 326.382 375.012 327.034 375.828 327.667C375.033 326.738 375.438 325.1 376.411 324.392C377.383 323.685 378.684 323.734 379.807 324.105C380.93 324.475 381.953 325.129 383.05 325.581C384.147 326.033 385.398 326.273 386.484 325.793C386.061 327.222 385.243 328.512 384.161 329.459C385.441 329.219 386.828 329.931 387.457 331.152C388.086 332.373 387.911 334.013 387.041 335.05C386.043 336.239 384.354 336.518 382.903 336.145C381.453 335.771 380.184 334.853 378.961 333.936C377.738 333.019 376.496 332.07 375.065 331.619L379.769 334.795C377.367 333.721 375.036 332.462 372.801 331.031C372.203 330.649 371.6 330.243 371.163 329.661C370.726 329.079 370.478 328.283 370.69 327.571Z" fill="#2F2E41"/>
<path d="M392.856 481.563C392.964 477.756 389.791 475.056 386.547 474.357C382.425 473.47 378.218 475.753 374.725 477.826C368.484 481.532 361.243 477.857 354.575 482.356C344.731 488.997 342.698 479.05 343.318 467.305C343.775 458.643 341.821 450.137 341.405 441.616C341.004 433.41 338.923 425.073 332.444 419.975C329.724 417.835 326.336 416.569 322.959 417.32C319.351 418.122 316.47 420.905 312.994 422.117C306.526 424.372 299.723 421.329 294.872 416.689C289.23 411.292 286.476 403.701 284.537 396.046C282.527 388.108 281.299 379.797 277.613 372.484C274.468 366.245 269.528 360.485 262.719 359.295C256.047 358.129 249.655 361.641 243.897 364.786C237.97 368.023 231.844 371.53 225.054 371.831C210.504 372.478 199.265 359.186 192.959 346.548C185.762 332.123 181.589 314.62 168.802 304.421C163.306 300.038 156.332 296.978 149.389 298.206C142.371 299.448 137.244 304.913 132.584 310.255C127.81 315.726 123.07 321.117 116.602 324.268C110.255 327.36 103.163 328.519 96.2491 327.539C92.9099 327.066 89.7149 326.084 86.6256 324.651C85.2145 323.996 86.4329 321.78 87.8345 322.43C94.61 325.573 102.322 326.118 109.471 324.226C116.653 322.326 122.376 318.013 127.447 312.366C132.091 307.196 136.456 301.31 142.529 297.987C148.673 294.627 155.718 294.712 162.059 297.424C168.489 300.173 174.059 305.036 178.282 310.883C183.188 317.675 186.451 325.635 189.731 333.416C195.659 347.479 203.258 364.087 218.424 368.458C232.784 372.597 243.409 358.953 256.803 356.788C263.388 355.723 269.62 358.171 274.283 363.221C279.111 368.45 281.902 375.364 283.745 382.35C286.004 390.909 287.167 400.077 291.316 407.914C294.595 414.109 300.668 419.855 307.569 420.284C311.523 420.53 314.55 418.572 317.929 416.679C320.975 414.973 324.156 414.095 327.58 414.813C333.993 416.156 338.975 422.241 341.424 428.444C347.465 443.744 339.146 463.405 350.971 476.487C353.133 478.878 355.905 480.677 359.035 481.043C363.228 481.533 367.149 479.437 370.704 477.311C376.843 473.638 384.617 468.727 391.347 473.825C393.735 475.633 395.342 478.363 395.251 481.563C395.204 483.214 392.809 483.221 392.856 481.563H392.856Z" fill="#3F3D56"/>
<path d="M153.791 303.524C149.823 303.524 146.606 300.069 146.606 295.809C146.606 291.548 149.823 288.094 153.791 288.094C157.76 288.094 160.977 291.548 160.977 295.809C160.977 300.069 157.76 303.524 153.791 303.524Z" fill="#744775"/>
<path d="M220.854 376.387C216.886 376.387 213.669 372.933 213.669 368.673C213.669 364.412 216.886 360.958 220.854 360.958C224.822 360.958 228.039 364.412 228.039 368.673C228.039 372.933 224.822 376.387 220.854 376.387Z" fill="#744775"/>
<path d="M261.825 135.429C257.418 125.61 245.986 120.142 236.241 123.191C230.751 124.909 226.146 128.856 221.099 131.74C216.051 134.624 209.788 136.415 204.71 133.592C195.982 128.74 196.514 114.251 188.923 107.548C183.87 103.087 176.456 103.295 170.21 105.387C163.965 107.478 158.254 111.171 151.968 113.118C140.271 116.74 126.969 113.694 117.667 105.262C117.574 105.178 117.482 105.093 117.392 105.007C112.786 100.651 105.569 104.241 105.738 110.829L106.916 156.77H261L261.825 135.429Z" fill="#F2F2F2"/>
<path d="M126.596 127.15C126.088 126.929 126.088 126.165 126.596 125.944C130.138 124.401 134.105 122.205 137.137 119.815C137.622 119.433 138.271 119.96 138.066 120.568L136.34 125.69H165.867V127.404H136.34L138.066 132.527C138.271 133.135 137.622 133.662 137.137 133.28C134.105 130.891 130.138 128.694 126.596 127.15H126.596Z" fill="#3F3D56"/>
<path d="M193.025 118.893C192.746 118.387 193.176 117.779 193.705 117.933C197.394 119.008 201.79 119.839 205.55 119.908C206.152 119.919 206.371 120.761 205.865 121.111L201.604 124.065L225.103 143.261L224.137 144.625L200.637 125.43L199.122 130.629C198.942 131.246 198.128 131.244 197.958 130.624C196.892 126.752 194.974 122.425 193.025 118.893L193.025 118.893Z" fill="#3F3D56"/>
<path d="M112.224 116.462C104.666 116.462 98.5382 109.882 98.5382 101.767C98.5382 93.6506 104.666 87.0713 112.224 87.0713C119.783 87.0713 125.911 93.6506 125.911 101.767C125.911 109.882 119.783 116.462 112.224 116.462Z" fill="#744775"/>
<path opacity="0.7" d="M179.287 116.462C171.729 116.462 165.601 109.882 165.601 101.767C165.601 93.6506 171.729 87.0713 179.287 87.0713C186.846 87.0713 192.974 93.6506 192.974 101.767C192.974 109.882 186.846 116.462 179.287 116.462Z" fill="#744775"/>
<path opacity="0.25" d="M239.963 130.177C232.404 130.177 226.277 123.598 226.277 115.482C226.277 107.366 232.404 100.787 239.963 100.787C247.522 100.787 253.649 107.366 253.649 115.482C253.649 123.598 247.522 130.177 239.963 130.177Z" fill="#744775"/>
<path d="M73.9342 186.082L286.294 184.447C293.12 184.395 298.708 190.31 298.757 197.639C298.806 204.968 293.297 210.968 286.472 211.021L74.1115 212.655C67.2857 212.707 61.6974 206.792 61.6485 199.463C61.5996 192.134 67.1083 186.134 73.9342 186.082Z" fill="#F2F2F2"/>
<path d="M318.018 200.961C314.932 200.961 312.43 198.274 312.43 194.96C312.43 191.646 314.932 188.96 318.018 188.96C321.105 188.96 323.607 191.646 323.607 194.96C323.607 198.274 321.105 200.961 318.018 200.961Z" fill="#F2F2F2"/>
<path d="M73.9342 38.6394L286.294 37.0052C293.12 36.9527 298.708 42.8676 298.757 50.1966C298.806 57.5256 293.297 63.5259 286.472 63.5784L74.1115 65.2126C67.2857 65.2652 61.6974 59.3503 61.6485 52.0213C61.5996 44.6922 67.1083 38.692 73.9342 38.6394Z" fill="#F2F2F2"/>
<path d="M318.018 53.5186C314.932 53.5186 312.43 50.832 312.43 47.518C312.43 44.204 314.932 41.5175 318.018 41.5175C321.105 41.5175 323.607 44.204 323.607 47.518C323.607 50.832 321.105 53.5186 318.018 53.5186Z" fill="#F2F2F2"/>
<path d="M339.944 527.75H374.724C377.648 527.75 380.026 525.197 380.026 522.058V484.713C380.026 481.574 377.648 479.02 374.724 479.02H339.944C337.02 479.02 334.642 481.574 334.642 484.713V522.058C334.642 525.197 337.02 527.75 339.944 527.75Z" fill="white"/>
<path d="M339.944 527.75H374.724C377.648 527.75 380.026 525.197 380.026 522.058V484.713C380.026 481.574 377.648 479.02 374.724 479.02H339.944C337.02 479.02 334.642 481.574 334.642 484.713V522.058C334.642 525.197 337.02 527.75 339.944 527.75ZM374.724 479.931C377.184 479.931 379.178 482.072 379.178 484.713V522.058C379.178 524.698 377.184 526.839 374.724 526.839H349.937C341.958 526.839 335.49 519.894 335.49 511.327V484.713C335.49 482.072 337.484 479.931 339.944 479.931H374.724Z" fill="#E6E6E6"/>
<path d="M84.7612 489.889C83.1118 490 82.2003 487.8 83.4481 486.518L83.5723 485.988C83.5559 485.945 83.5395 485.903 83.523 485.86C81.855 481.59 76.202 481.619 74.5482 485.896C73.0803 489.692 71.2115 493.495 70.7513 497.508C70.5451 499.28 70.6379 501.085 71.004 502.823C67.5646 494.756 65.7546 485.948 65.7546 477.089C65.7546 474.863 65.8681 472.637 66.1001 470.417C66.2909 468.601 66.5539 466.796 66.8943 465.008C68.7351 455.341 72.7212 446.133 78.4707 438.443C81.2346 436.821 83.5396 434.285 84.9318 431.245C85.432 430.149 85.8239 428.97 86.0095 427.768C85.695 427.812 84.8235 422.669 85.0608 422.353C84.6224 421.639 83.8378 421.284 83.3591 420.587C80.9781 417.121 77.6977 417.726 75.9852 422.436C72.3269 424.419 72.2915 427.707 74.5362 430.869C75.9643 432.88 76.1605 435.603 77.4136 437.756C77.2846 437.933 77.1506 438.105 77.0217 438.282C74.6577 441.538 72.613 445.037 70.8894 448.713C71.3765 444.628 70.6573 439.706 69.4312 436.533C68.0355 432.918 65.4195 429.873 63.1158 426.747C60.3486 422.994 54.6744 424.632 54.1868 429.391C54.1821 429.437 54.1775 429.483 54.173 429.529C54.5152 429.736 54.8504 429.956 55.1779 430.189C57.0457 431.515 56.4002 434.624 54.1871 434.991L54.137 434.999C54.2607 436.322 54.4721 437.634 54.7815 438.925C51.8261 451.196 58.2066 455.666 67.317 455.867C67.5182 455.977 67.7141 456.088 67.9153 456.193C66.9922 458.984 66.2548 461.846 65.7082 464.748C65.2183 467.311 64.878 469.902 64.6872 472.504C64.45 475.788 64.4706 479.088 64.7285 482.365L64.713 482.249C64.0582 478.639 62.2327 475.267 59.5822 472.931C55.6338 469.448 50.0555 468.166 45.7958 465.366C43.7453 464.019 41.1178 465.76 41.4757 468.313L41.4931 468.435C42.1274 468.712 42.7461 469.033 43.3443 469.393C43.6865 469.6 44.0217 469.82 44.3492 470.053C46.2169 471.379 45.5714 474.488 43.3583 474.855L43.3082 474.863C43.2721 474.869 43.2412 474.874 43.2051 474.88C44.2932 477.654 45.8091 480.228 47.7067 482.448C49.5546 493.161 57.4915 494.178 65.9815 491.058H65.9867C66.9149 495.399 68.271 499.64 70.014 503.682H84.4007C84.4523 503.51 84.4987 503.333 84.5451 503.161C83.2147 503.25 81.874 503.167 80.5642 502.906C81.6316 501.5 82.699 500.083 83.7664 498.676C83.7922 498.649 83.8129 498.621 83.8335 498.593C84.3749 497.874 84.9215 497.159 85.4629 496.44L85.4632 496.439C85.4971 494.229 85.2504 492.027 84.7616 489.89L84.7612 489.889Z" fill="#F2F2F2"/>
<path d="M372.858 484.797C375.738 482.698 376.153 478.15 373.699 475.501L384.752 447.333L378.248 442.135L365.347 475.693C363.634 477.758 363.385 480.881 364.917 483.254C366.713 486.035 370.268 486.725 372.858 484.797H372.858Z" fill="#FFB6B6"/>
<path d="M380.996 382.275H380.996C385.72 381.852 389.977 385.331 390.856 390.333L397.293 426.963L377.334 470.682L366.955 465.538L379.729 424.392L372.789 394.584C371.405 388.641 375.311 382.783 380.996 382.275V382.275Z" fill="#744775"/>
<path d="M371.766 492.835C372.426 492.835 372.964 493.412 372.964 494.121V494.978C372.964 495.688 372.426 496.264 371.766 496.264H343.823C343.163 496.264 342.626 495.688 342.626 494.978V494.121C342.626 493.412 343.163 492.835 343.823 492.835H371.766Z" fill="#E6E6E6"/>
<path d="M371.766 502.265C372.426 502.265 372.964 502.842 372.964 503.551V504.408C372.964 505.117 372.426 505.694 371.766 505.694H343.823C343.163 505.694 342.626 505.117 342.626 504.408V503.551C342.626 502.842 343.163 502.265 343.823 502.265H371.766Z" fill="#E6E6E6"/>
<path d="M371.766 511.694C372.426 511.694 372.964 512.271 372.964 512.98V513.837C372.964 514.546 372.426 515.123 371.766 515.123H343.823C343.163 515.123 342.626 514.546 342.626 513.837V512.98C342.626 512.271 343.163 511.694 343.823 511.694H371.766Z" fill="#E6E6E6"/>
</g>
<defs>
<clipPath id="clip0_6_42">
<rect width="455" height="589" fill="white" transform="matrix(-1 0 0 1 455 0)"/>
</clipPath>
</defs>
</svg>
