<svg width="387" height="541" viewBox="0 0 387 541" fill="none" xmlns="http://www.w3.org/2000/svg">
<path d="M360.178 340.896H385.955V309.888C385.955 304.357 382.193 299.832 377.595 299.832H352.515V331.678C352.515 336.761 355.953 340.896 360.178 340.896Z" fill="#3F3D56"/>
<path d="M7.66336 41.7121H33.4401V10.7042C33.4401 5.17303 29.6781 0.647583 25.0801 0.647583H0V32.4935C0 37.5767 3.43776 41.7121 7.66336 41.7121Z" fill="#3F3D56"/>
<path d="M188.281 527.778L197.566 527.777L201.982 484.697L188.279 484.698L188.281 527.778Z" fill="#A0616A"/>
<path d="M187.954 539.429L216.506 539.428V538.994C216.505 531.611 211.53 525.626 205.393 525.626H205.392L200.177 520.866L190.446 525.626L187.954 525.627L187.954 539.429V539.429Z" fill="#2F2E41"/>
<path d="M194.165 305.439L200.293 331.03C200.293 331.03 213.529 414.781 210.046 426.513C206.563 438.246 203.995 512.049 203.995 512.049H185.871C185.871 512.049 183.43 493.327 183.501 490.509C183.572 487.691 179.392 442.436 184.966 435.732L160.582 361.983L122.266 323.433L137.291 300.998L194.165 305.439L194.165 305.439Z" fill="#2F2E41"/>
<path opacity="0.5" d="M105.545 346.953V333.544L116.692 315.107C121.29 315.107 125.052 319.633 125.052 325.164V370.419C125.052 375.95 121.29 380.475 116.692 380.475H79.072C74.474 380.475 70.712 375.95 70.712 370.419L86.0387 357.848H96.4888C101.483 357.848 105.545 352.96 105.545 346.953Z" fill="#744775"/>
<path opacity="0.5" d="M51.7486 235.911H279.17C286.576 235.911 292.601 228.663 292.601 219.754V124.685C292.601 115.776 286.576 108.528 279.17 108.528H51.7486C44.3424 108.528 38.3166 115.776 38.3166 124.685V219.754C38.3166 228.663 44.3424 235.911 51.7486 235.911Z" fill="#744775"/>
<path d="M149.589 217.893H297.979C305.578 217.893 311.76 210.457 311.76 201.316V106.248C311.76 97.1076 305.578 89.6715 297.98 89.6715H70.5589C62.9605 89.6715 56.7786 97.108 56.7786 106.248C56.7786 167.81 98.4131 217.893 149.589 217.893ZM297.98 91.3476C304.81 91.3476 310.366 98.032 310.366 106.248V201.316C310.366 209.533 304.81 216.217 297.979 216.217H149.589C99.1812 216.217 58.1719 166.886 58.1719 106.248C58.1719 98.032 63.7286 91.3476 70.5589 91.3476H297.98Z" fill="#744775"/>
<path d="M130.765 315.982L132.24 290.872L120.433 287.857L119.659 314.472C119.194 315.062 118.791 315.742 118.473 316.508C116.746 320.672 118.152 325.732 121.613 327.81C125.074 329.887 129.281 328.196 131.008 324.033C132.11 321.377 131.932 318.36 130.765 315.982Z" fill="#A0616A"/>
<path d="M149.509 154.975L154.051 159.047L142.887 235.627L144.519 240.316L142.342 242.778L141.675 248.668L132.884 303.375H119.479C119.676 301.474 115.8 299.526 115.995 297.508C116.219 295.201 117.789 291.71 118.013 289.273C118.082 288.518 118.151 287.758 118.22 286.992C118.322 285.868 118.423 284.733 118.525 283.587C118.604 282.7 118.683 281.807 118.762 280.908C120.476 261.452 121.181 239.558 122.171 220.652C123.433 196.55 125.159 177.305 130.031 174.161L149.509 154.975L149.509 154.975Z" fill="#3F3D56"/>
<path d="M115.623 526.474C114.184 526.583 113.388 524.431 114.477 523.178L114.586 522.66C114.571 522.618 114.557 522.577 114.543 522.535C113.087 518.36 108.154 518.389 106.711 522.57C105.43 526.281 103.799 529.999 103.398 533.923C103.218 535.655 103.299 537.419 103.618 539.119C100.617 531.232 99.0376 522.62 99.0376 513.96C99.0376 511.784 99.1366 509.608 99.3391 507.437C99.5056 505.662 99.7351 503.897 100.032 502.149C101.638 492.698 105.117 483.697 110.134 476.178C112.546 474.592 114.557 472.113 115.772 469.141C116.208 468.07 116.55 466.917 116.712 465.742C116.438 465.785 115.677 460.757 115.884 460.448C115.502 459.75 114.817 459.403 114.4 458.722C112.322 455.333 109.459 455.925 107.965 460.53C104.773 462.468 104.742 465.682 106.701 468.773C107.947 470.74 108.118 473.401 109.211 475.507C109.099 475.68 108.982 475.848 108.869 476.021C106.807 479.204 105.022 482.625 103.518 486.219C103.943 482.225 103.316 477.413 102.246 474.311C101.028 470.776 98.7452 467.8 96.7349 464.744C94.3203 461.074 89.3688 462.676 88.9433 467.328C88.9392 467.373 88.9352 467.418 88.9313 467.463C89.2299 467.666 89.5224 467.881 89.8081 468.109C91.438 469.405 90.8747 472.445 88.9435 472.803L88.8998 472.811C89.0078 474.105 89.1923 475.388 89.4623 476.649C86.8833 488.646 92.451 493.016 100.401 493.212C100.576 493.321 100.747 493.429 100.923 493.532C100.118 496.26 99.4741 499.058 98.9971 501.895C98.5696 504.401 98.2726 506.934 98.1062 509.478C97.8992 512.688 97.9172 515.914 98.1422 519.118L98.1287 519.005C97.5572 515.475 95.9643 512.179 93.6515 509.895C90.206 506.49 85.3382 505.236 81.6212 502.5C79.8319 501.182 77.5391 502.885 77.8514 505.38L77.8666 505.5C78.42 505.77 78.9599 506.084 79.4819 506.436C79.7805 506.639 80.073 506.854 80.3588 507.081C81.9886 508.378 81.4254 511.417 79.4942 511.776L79.4504 511.784C79.4189 511.789 79.3919 511.795 79.3605 511.8C80.3099 514.512 81.6328 517.029 83.2887 519.2C84.9012 529.673 91.8271 530.666 99.2356 527.617H99.2401C100.05 531.86 101.233 536.006 102.754 539.958H115.309C115.354 539.79 115.394 539.617 115.435 539.449C114.274 539.536 113.104 539.454 111.961 539.2C112.892 537.825 113.824 536.439 114.755 535.065C114.778 535.038 114.796 535.01 114.814 534.983C115.286 534.28 115.763 533.581 116.235 532.878L116.236 532.877C116.265 530.717 116.05 528.564 115.624 526.474L115.623 526.474Z" fill="#F2F2F2"/>
<path d="M256.038 540.003C256.038 540.556 255.669 541 255.209 541H78.7493C78.2895 541 77.9203 540.556 77.9203 540.003C77.9203 539.45 78.2895 539.005 78.7493 539.005H255.209C255.669 539.005 256.038 539.45 256.038 540.003H256.038Z" fill="#CCCCCC"/>
<path d="M371.193 0C379.923 0 387 8.51348 387 19.0154V341.087H385.607V132.144C385.607 60.0883 337.049 1.6761 277.149 1.6761L0.0950012 1.37133L0.348358 0H371.193Z" fill="#3F3D56"/>
<path d="M255.329 214.541C255.329 215.664 255.357 216.787 255.406 217.893H297.98C305.204 217.893 311.063 210.845 311.063 202.155V154.57C309.231 154.327 307.371 154.201 305.49 154.201C277.79 154.201 255.329 181.22 255.329 214.541H255.329Z" fill="#744775"/>
<path d="M97.4985 153.36H233.606C235.926 153.36 237.811 155.629 237.811 158.419C237.811 161.209 235.926 163.477 233.606 163.477H97.4985C95.1789 163.477 93.2934 161.209 93.2934 158.419C93.2934 155.629 95.1789 153.36 97.4985 153.36Z" fill="#744775"/>
<path d="M191.406 124.997H233.606C235.926 124.997 237.811 127.265 237.811 130.055C237.811 132.846 235.926 135.114 233.606 135.114H191.406C189.086 135.114 187.201 132.846 187.201 130.055C187.201 127.265 189.086 124.997 191.406 124.997Z" fill="#744775"/>
<path d="M149.964 527.778L159.249 527.777L163.665 484.697L149.962 484.698L149.964 527.778Z" fill="#A0616A"/>
<path d="M149.637 539.429L178.189 539.428V538.994C178.188 531.611 173.213 525.626 167.076 525.626H167.075L161.86 520.866L152.129 525.626L149.637 525.627L149.637 539.429V539.429Z" fill="#2F2E41"/>
<path d="M169.291 315.526L164.414 366.647L175.212 419.864L165.807 512.468L148.391 514.144C148.391 514.144 140.031 446.262 147.694 422.797L128.187 330.611L142.817 320.555L169.291 315.526Z" fill="#2F2E41"/>
<path d="M151.12 142.792C154.193 138.845 153.141 135.249 157.892 134.242C161.114 133.559 164.991 134.244 168.29 134.24C176.58 134.231 177.826 139.745 182.599 147.071C194.893 165.942 183.455 181.085 186.359 203.646C189.057 224.609 181.826 236.026 185.029 257.045C186.553 267.051 189.508 281.139 194.679 292.646C197.534 299 198.903 306.391 198.203 313.431C197.583 319.662 130.691 320.388 128.84 318.855C126.66 317.05 127.397 313.18 127.184 310.484C126.607 303.179 126.021 298.062 127.479 290.601C128.849 283.59 128.824 275.444 128.843 268.198C128.861 261.212 137.041 272.745 136.566 265.771C135.96 256.876 134.758 248.173 133.434 239.359C132.41 232.537 132.008 225.526 130.503 218.846C128.769 211.151 126.702 204.383 126.632 196.312C126.578 190.031 125.318 181.249 127.394 175.494C130.452 167.016 136.62 159.381 141.823 152.59C144.411 149.214 146.979 147.016 149.935 144.217" fill="#3F3D56"/>
<path d="M256.131 181.429L237.297 192.4L241.006 206.217L260.575 193.766C261.233 193.957 261.924 194.038 262.634 193.988C266.495 193.715 269.442 189.729 269.216 185.083C268.989 180.438 265.675 176.893 261.813 177.165C259.35 177.339 257.264 179.027 256.131 181.429L256.131 181.429Z" fill="#A0616A"/>
<path d="M198.359 244.051C200.163 242.901 227.644 221.82 242.093 212.027C242.363 211.843 244.229 213.045 244.489 212.869C244.886 212.6 244.508 210.602 244.879 210.351C245.684 209.805 247.187 211.04 247.853 210.589C250.268 208.952 249.756 201.97 249.756 201.97L244.879 187.723L236.907 187.417L235.126 191.076L231.346 190.528L228.856 194.428L200.159 207.972C199.043 189.973 193.06 175.124 186.578 160.597L183.958 161.192C177.35 162.694 172.943 170.259 174.024 178.242L181.592 234.121C182.324 239.32 185.382 243.512 189.572 245.061C192.6 246.181 195.741 245.718 198.359 244.051Z" fill="#3F3D56"/>
<path d="M169.869 128.944C158.093 128.944 148.547 117.461 148.547 103.296C148.547 89.1303 158.093 77.6471 169.869 77.6471C181.644 77.6471 191.19 89.1303 191.19 103.296C191.19 117.461 181.644 128.944 169.869 128.944Z" fill="#A0616A"/>
<path d="M146.203 104.076C146.949 103.715 147.694 103.414 148.342 103.221C144.683 108.762 150.86 113.624 151.818 119.295C151.739 123.797 153.785 125.839 157.364 127.072L157.28 126.72C186.395 135.691 155.683 105.828 178.446 105.005C181.915 105.249 177.282 92.1269 180.849 92.7871C189.906 94.4632 190.328 93.3114 191.298 101.169C193.062 101.863 195.479 98.6534 195.193 95.3012C195.838 93.8905 197.525 94.7935 198.203 92.6527C198.92 91.0188 200.286 80.3336 197.172 85.3284C196.966 81.9185 197.768 74.9475 194.232 80.9035C194.692 78.1939 192.737 79.3673 191.919 80.9789C191.341 79.395 190.762 77.8195 190.191 76.2355C190.352 76.9479 190.247 77.7273 189.954 78.4312C188.311 74.2316 185.802 73.8512 181.887 72.6654C181.933 73.9519 181.908 75.4572 181.762 76.621C177.216 67.5607 166.206 70.092 161.816 78.0965C159.034 78.8606 157.859 77.7021 155.072 78.5402C147.584 80.792 144.161 94.6807 146.203 104.076V104.076Z" fill="#2F2E41"/>
<path d="M89.5221 346.115H63.7453V315.107C63.7453 309.576 67.5073 305.051 72.1053 305.051H97.1854V336.897C97.1854 341.98 93.7477 346.115 89.5221 346.115Z" fill="#744775"/>
<path d="M298.031 53.5141C294.777 53.5141 292.14 50.2704 292.14 46.2691C292.14 42.2677 294.777 39.024 298.031 39.024C301.285 39.024 303.922 42.2677 303.922 46.2691C303.922 50.2704 301.285 53.5141 298.031 53.5141Z" fill="#3F3D56"/>
<path d="M277.679 53.5141C274.425 53.5141 271.787 50.2704 271.787 46.2691C271.787 42.2677 274.425 39.024 277.679 39.024C280.932 39.024 283.57 42.2677 283.57 46.2691C283.57 50.2704 280.932 53.5141 277.679 53.5141Z" fill="#3F3D56"/>
<path d="M257.326 53.5141C254.073 53.5141 251.435 50.2704 251.435 46.2691C251.435 42.2677 254.073 39.024 257.326 39.024C260.58 39.024 263.218 42.2677 263.218 46.2691C263.218 50.2704 260.58 53.5141 257.326 53.5141Z" fill="#3F3D56"/>
<path d="M112.86 70.6249C113.437 70.6249 113.905 71.1888 113.905 71.882V80.2625C113.905 80.9557 113.437 81.5195 112.86 81.5195H105.894C105.318 81.5195 104.849 80.9557 104.849 80.2625V71.882C104.849 71.1888 105.318 70.6249 105.894 70.6249H112.86Z" fill="#744775"/>
<path d="M96.8371 70.6249C97.4134 70.6249 97.8821 71.1888 97.8821 71.882V80.2625C97.8821 80.9557 97.4134 81.5195 96.8371 81.5195H89.8704C89.2942 81.5195 88.8254 80.9557 88.8254 80.2625V71.882C88.8254 71.1888 89.2942 70.6249 89.8704 70.6249H96.8371Z" fill="#744775"/>
<path d="M80.8137 70.6249C81.3899 70.6249 81.8587 71.1888 81.8587 71.882V80.2625C81.8587 80.9557 81.3899 81.5195 80.8137 81.5195H73.847C73.2708 81.5195 72.802 80.9557 72.802 80.2625V71.882C72.802 71.1888 73.2708 70.6249 73.847 70.6249H80.8137Z" fill="#744775"/>
</svg>
