<svg width="313" height="225" viewBox="0 0 313 225" fill="none" xmlns="http://www.w3.org/2000/svg">
<g clip-path="url(#clip0_5_66)">
<path d="M52.4249 215.979C52.1746 215.99 51.9268 215.925 51.7151 215.791C51.5033 215.657 51.3379 215.461 51.2413 215.23C51.1446 214.998 51.1213 214.743 51.1746 214.498C51.2279 214.253 51.3552 214.031 51.5392 213.861L51.6229 213.528C51.6119 213.501 51.6008 213.475 51.5896 213.448C51.3375 212.852 50.9149 212.344 50.375 211.988C49.8352 211.632 49.2021 211.443 48.5553 211.446C47.9084 211.448 47.2767 211.641 46.7395 212.002C46.2023 212.362 45.7836 212.873 45.5358 213.47C44.5457 215.855 43.2851 218.244 42.9747 220.765C42.838 221.88 42.8956 223.01 43.1451 224.104C40.8196 219.032 39.612 213.518 39.6042 207.937C39.6037 206.537 39.6815 205.138 39.8372 203.746C39.966 202.605 40.1445 201.472 40.3729 200.348C41.6194 194.245 44.2955 188.526 48.1817 183.659C50.0625 182.633 51.5836 181.054 52.54 179.137C52.8864 178.448 53.1313 177.712 53.2669 176.953C53.0548 176.981 52.4669 173.749 52.627 173.551C52.3313 173.102 51.802 172.879 51.4791 172.441C49.873 170.264 47.6603 170.644 46.5051 173.603C44.0375 174.849 44.0136 176.914 45.5277 178.901C46.491 180.164 46.6234 181.874 47.4686 183.228C47.3817 183.339 47.2912 183.447 47.2043 183.558C45.6147 185.602 44.2292 187.797 43.0678 190.111C43.3502 187.518 43.0131 184.896 42.0842 182.459C41.1428 180.188 39.3782 178.275 37.8242 176.312C35.9577 173.953 32.1301 174.982 31.8013 177.972C31.7981 178.001 31.795 178.03 31.792 178.059C32.0228 178.189 32.2487 178.327 32.4698 178.473C32.7475 178.659 32.9627 178.924 33.0872 179.234C33.2116 179.544 33.2396 179.884 33.1673 180.21C33.0951 180.536 32.926 180.833 32.6823 181.062C32.4386 181.29 32.1315 181.439 31.8014 181.49L31.7676 181.495C31.8498 182.327 31.9952 183.152 32.2024 183.962C30.2089 191.671 34.5127 194.479 40.6581 194.605C40.7938 194.675 40.926 194.744 41.0616 194.81C39.8947 198.117 39.1628 201.562 38.8842 205.057C38.7265 207.12 38.7358 209.191 38.912 211.252L38.9016 211.179C38.4563 208.888 37.2339 206.82 35.4406 205.325C32.7773 203.137 29.0145 202.332 26.1412 200.573C25.8358 200.377 25.4807 200.272 25.1179 200.271C24.755 200.271 24.3994 200.373 24.0931 200.568C23.7868 200.763 23.5425 201.041 23.389 201.37C23.2356 201.698 23.1794 202.064 23.2271 202.424C23.2309 202.45 23.2348 202.475 23.2388 202.501C23.6671 202.675 24.0842 202.876 24.4875 203.103C24.7183 203.233 24.9443 203.371 25.1653 203.517C25.443 203.703 25.6582 203.968 25.7827 204.278C25.9072 204.588 25.9351 204.928 25.8628 205.254C25.7906 205.58 25.6215 205.877 25.3778 206.105C25.1341 206.334 24.8271 206.483 24.497 206.534L24.4631 206.539C24.4388 206.543 24.4179 206.546 24.3936 206.55C25.1255 208.297 26.1526 209.905 27.4301 211.304C28.6766 218.034 34.0304 218.673 39.7572 216.713H39.7607C40.3891 219.444 41.2995 222.101 42.4773 224.644H52.1817C52.2165 224.536 52.2478 224.424 52.2791 224.317C51.3808 224.373 50.479 224.319 49.5938 224.157C50.3139 223.273 51.0339 222.383 51.7539 221.499C51.7699 221.483 51.785 221.465 51.7991 221.447C52.1643 220.995 52.533 220.546 52.8982 220.094L52.8984 220.093C52.9179 218.707 52.7588 217.325 52.4252 215.979L52.4249 215.979H52.4249Z" fill="#F2F2F2"/>
<path d="M63.5867 224.426H79.2466C81.9249 215.408 79.2609 194.095 82.7912 185.384C89.5641 168.682 98.2167 151.058 114.367 142.903C121.262 139.42 128.78 138.06 136.459 138.134C147.065 138.235 157.97 141.082 167.954 144.856C172.038 146.396 176.085 148.089 180.116 149.82C195.302 156.345 210.323 163.453 226.653 165.374C247.318 167.803 271.615 158.557 277.259 138.642C281.567 123.395 273.809 107.566 265.673 93.9489C257.536 80.3318 248.442 65.7621 249.928 49.9963C249.933 49.9434 249.938 49.8851 249.949 49.8322C250.508 44.1694 253.889 40.0998 258.612 37.4907H238.048C237.777 52.198 246.285 65.1799 253.942 77.9979C262.078 91.6097 269.836 107.444 265.529 122.691C259.885 142.601 213.148 119.263 192.483 116.828C186.647 116.146 195.918 118.575 190.353 116.828C181.626 114.092 180.659 139.188 172.166 135.504C166.878 133.207 161.586 130.926 156.224 128.899C154.003 128.058 151.735 127.269 149.44 126.539C149.438 126.539 149.436 126.538 149.434 126.537C149.432 126.536 149.431 126.535 149.43 126.534C134.02 121.654 117.167 119.754 102.929 126.809C102.833 126.856 102.732 126.904 102.636 126.952C86.4865 135.102 77.8339 152.725 71.0609 169.428C65.4646 183.235 66.3449 209.862 63.5867 224.426L63.5867 224.426Z" fill="#F2F2F2"/>
<path d="M156.415 223.964C79.9884 225.583 78.3126 192.106 78.3126 152.286C78.3126 112.467 113.164 81.3173 156.351 81.3173C199.538 81.3173 233.837 112.456 233.837 152.274C233.837 192.092 199.602 223.964 156.415 223.964Z" fill="white"/>
<path d="M155.979 224.4C79.553 226.018 77.8772 192.541 77.8772 152.722C77.8772 112.902 113.013 80.5082 156.2 80.5082C199.387 80.5082 234.523 112.903 234.523 152.722C234.523 192.54 199.166 224.4 155.979 224.4ZM156.2 82.4953C114.201 82.4953 80.7396 114.004 80.0323 152.722C79.3745 188.734 120.868 233.672 156.2 222.949C175.148 203.709 228.718 182.986 232.367 152.722C237.008 114.236 198.199 82.4953 156.2 82.4953L156.2 82.4953Z" fill="#3F3D56"/>
<path d="M2.29323e-06 224.482C-0.000200594 224.55 0.0130609 224.617 0.039024 224.68C0.064987 224.743 0.103139 224.801 0.151286 224.849C0.199432 224.897 0.256622 224.935 0.319567 224.961C0.382511 224.987 0.449968 225 0.518055 225H311.895C312.033 225 312.165 224.945 312.262 224.848C312.359 224.751 312.413 224.619 312.413 224.482C312.413 224.345 312.359 224.213 312.262 224.116C312.165 224.019 312.033 223.964 311.895 223.964H0.518055C0.449968 223.964 0.382513 223.977 0.319569 224.003C0.256625 224.029 0.199435 224.067 0.151289 224.115C0.103143 224.163 0.0649911 224.221 0.0390275 224.283C0.0130638 224.346 -0.000198861 224.414 2.29323e-06 224.482Z" fill="#CCCCCC"/>
<path d="M209.811 217.852H204.434L201.876 197.111L209.812 197.112L209.811 217.852Z" fill="#A0616A"/>
<path d="M210 223.461L193.465 223.461V223.252C193.465 221.545 194.144 219.908 195.351 218.701C196.557 217.494 198.194 216.816 199.901 216.816H199.902L202.922 214.524L208.557 216.816L210.001 216.816L210 223.461V223.461Z" fill="#2F2E41"/>
<path d="M201.641 169.776C195.501 163.813 188.444 158.874 180.74 155.145L176.811 159.58L179.313 154.47C169.002 149.761 157.808 147.296 146.472 147.236C135.137 147.176 123.917 149.523 113.557 154.123L115.598 158.557L112.463 154.616C104.37 158.381 96.964 163.473 90.5512 169.681C89.892 170.295 89.4848 171.133 89.4086 172.031C89.3757 172.518 89.4479 173.008 89.6204 173.465C89.7929 173.923 90.0616 174.338 90.4084 174.682C91.3964 175.15 92.8043 176.224 94.8963 179.17C95.5378 179.803 96.4011 180.16 97.3021 180.165C98.2031 180.171 99.0707 179.824 99.72 179.2C112.144 167.174 128.757 160.45 146.047 160.45C163.338 160.45 179.951 167.174 192.375 179.2C193.024 179.824 193.891 180.171 194.792 180.165C195.693 180.16 196.557 179.803 197.198 179.17C199.303 177.277 199.795 174.6 201.604 174.764C202.24 174.149 202.627 173.319 202.688 172.435C202.715 171.942 202.636 171.45 202.455 170.991C202.274 170.532 201.996 170.118 201.641 169.776Z" fill="#744775"/>
<path d="M160.645 176.23L155.268 176.23L152.71 155.489L160.646 155.49L160.645 176.23Z" fill="#A0616A"/>
<path d="M160.834 181.839L144.299 181.839V181.63C144.299 179.923 144.978 178.286 146.184 177.079C147.391 175.872 149.028 175.194 150.735 175.194H150.736L153.756 172.902L159.391 175.194L160.835 175.194L160.834 181.839V181.839Z" fill="#2F2E41"/>
<path d="M215.959 99.8691L177.799 103.856L168.423 113.12L153.508 117.991C151.631 118.604 149.985 119.775 148.791 121.349C147.597 122.923 146.913 124.824 146.829 126.798C146.441 135.894 145.674 150.996 144.864 150.838C143.706 150.612 146.021 156.271 147.642 155.943C149.264 155.614 150.95 159.304 149.829 159.96C148.708 160.616 150.575 166.229 150.575 166.229L162.256 164.347C163.718 153.319 169.058 141.695 162.764 133.58C173.423 130.122 182.812 127.229 189.716 125.447L193.451 123.897L201.203 206.273L212.167 206.453C215.193 190.89 216.713 176.883 214.348 166.891C214.348 166.891 214.688 136.873 215.984 137.201C217.281 137.53 216.182 133.619 216.182 133.619C216.182 133.619 215.046 130.289 216.441 128.907C217.837 127.525 216.965 119.399 216.965 119.399C219.271 111.709 218.577 105.359 215.959 99.8691V99.8691Z" fill="#2F2E41"/>
<path d="M220.471 83.0602C220.848 81.3653 221.226 79.6702 221.604 77.975C222.666 73.2282 223.726 68.4835 224.784 63.741C226.173 57.5271 227.568 51.0968 226.373 44.8438C226.194 43.9034 225.943 42.9781 225.623 42.0759C223.833 36.9571 219.881 32.4717 214.641 31.5271L213.784 28.3367L202.09 26.8972L199.877 29.9495C195.113 29.5686 192.286 34.312 188.999 38.221L187.693 39.5269C186.742 40.7172 186.546 45.189 185.952 46.492C183.31 52.2859 186.951 46.6552 186.823 53.0217C186.69 59.6191 185.393 66.0209 185.26 72.6178C185.246 73.3257 183.722 73.8653 183.46 75.1063C183.319 75.7761 184.499 77.0187 184.32 77.7675C184.167 78.4067 184.93 80.9754 184.766 81.6361C184.007 84.7008 182.288 85.9075 182.213 87.4186C182.178 88.0001 182.091 88.5774 181.954 89.1435C181.859 89.5451 180.541 89.0638 180.413 89.4718C180.197 90.1571 181.146 91.7354 180.886 92.4215C180.383 93.7492 180.721 96.0941 180.413 97.3074C179.119 102.401 179.616 100.38 176.811 104.824C183.991 106.995 187.092 114.264 194.478 115.573C194.811 114.497 195.143 113.418 195.473 112.337C196.452 112.399 197.437 112.458 198.422 112.512C198.478 113.451 198.533 114.391 198.589 115.324C206.076 115.807 213.585 115.848 221.076 115.447C220.825 114.694 220.625 113.925 220.476 113.146C220.065 110.978 220.949 108.627 221.043 106.481C221.11 104.892 220.354 103.541 220.376 101.829C220.382 101.513 222.16 101.246 222.155 100.924C222.127 98.0778 220.51 94.2705 221.043 91.475C221.599 88.6016 219.837 85.9175 220.471 83.0611V83.0603L220.471 83.0602Z" fill="#3F3D56"/>
<path d="M165.771 14.3242C164.779 14.3253 163.829 14.7197 163.128 15.4208C162.427 16.1218 162.032 17.0724 162.031 18.0638V40.5974C162.032 41.5889 162.427 42.5394 163.128 43.2405C163.829 43.9416 164.779 44.3359 165.771 44.3371H172.742C173.734 44.3359 174.684 43.9416 175.385 43.2405C176.086 42.5394 176.481 41.5889 176.482 40.5974C177.593 29.2749 177.185 23.1644 176.482 18.0638C176.481 17.0724 176.086 16.1218 175.385 15.4208C174.684 14.7197 173.734 14.3253 172.742 14.3242H165.771V14.3242Z" fill="#744775"/>
<path d="M164.9 14.3242C163.909 14.3254 162.958 14.7197 162.257 15.4208C161.556 16.1219 161.162 17.0724 161.16 18.0638C160.76 26.9215 160.482 35.3689 161.16 40.5974C161.162 41.5889 161.556 42.5394 162.257 43.2405C162.958 43.9416 163.909 44.336 164.9 44.3371H171.871C172.863 44.336 173.813 43.9416 174.515 43.2405C175.216 42.5395 175.61 41.5889 175.611 40.5975V18.0639C175.61 17.0724 175.216 16.1219 174.515 15.4208C173.813 14.7198 172.863 14.3254 171.871 14.3242L164.9 14.3242Z" fill="#3F3D56"/>
<path d="M182.847 47.1195C182.847 47.1195 189.44 46.8521 186.084 49.699C183.9 51.5516 178.983 64.449 173.874 66.0092C173.272 66.1926 172.639 66.249 172.014 66.175C171.39 66.1009 170.787 65.8979 170.246 65.5789C169.704 65.2598 169.234 64.8317 168.866 64.3216C168.498 63.8116 168.24 63.2306 168.108 62.6157L163.477 41.0286L169.527 40.1084L173.214 57.1937L182.847 47.1195V47.1195Z" fill="#A0616A"/>
<path d="M166.836 42.6053C169.2 42.6053 171.115 40.6896 171.115 38.3264C171.115 35.9633 169.2 34.0475 166.836 34.0475C164.473 34.0475 162.558 35.9633 162.558 38.3264C162.558 40.6896 164.473 42.6053 166.836 42.6053Z" fill="#A0616A"/>
<path d="M191.791 35.3234C195.71 38.267 196.865 47.9198 194.401 52.1579C189.693 60.2594 180.411 66.4969 180.015 65.6307C179.473 64.4444 178.528 66.0373 178.56 66.5588C178.592 67.0802 176.804 66.9248 177.012 67.4766C177.221 68.0284 175.809 68.1483 175.197 68.4683C175.197 68.4683 169.587 68.5631 167.818 66.0034C166.048 63.4437 165.811 59.9064 165.811 59.9064L163.614 57.3215L175.262 50.5126L174.302 55.1084L180.112 48.3426L181.342 45.6282L183.304 44.6264L183.954 42.581L185.763 41.7631L192.917 33.4325L191.791 35.3234L191.791 35.3234Z" fill="#3F3D56"/>
<path d="M223.975 114.62C224.464 114.298 224.876 113.872 225.183 113.373C225.489 112.874 225.682 112.314 225.749 111.732C225.816 111.15 225.754 110.56 225.568 110.005C225.382 109.45 225.077 108.942 224.674 108.517L225.497 71.9136L218.264 73.0387L218.774 108.542C218.106 109.267 217.726 110.212 217.708 111.198C217.69 112.183 218.034 113.142 218.675 113.891C219.316 114.64 220.209 115.128 221.186 115.263C222.163 115.397 223.155 115.169 223.975 114.62Z" fill="#A0616A"/>
<path d="M224.29 40.7128C224.29 40.7128 223.81 41.0755 226.271 44.8242C226.758 45.5677 227.089 48.5653 227.321 52.4771C227.396 53.7516 228.121 54.6469 228.178 56.069C228.226 57.2759 227.607 58.9954 227.643 60.247C227.663 60.9146 228.161 61.4955 228.178 62.1634C228.185 62.4418 227.712 62.8089 227.719 63.0863C227.726 63.3855 227.733 63.6838 227.74 63.9811C227.909 71.4159 227.945 78.1308 228.113 78.0174C228.471 77.7756 227.582 79.0255 228.026 79.2343C228.471 79.443 227.647 80.4784 227.859 81.0151C228.118 81.669 227.796 82.3904 227.593 83.0468C227.006 84.9422 226.88 86.5697 226.369 87.4701C226.975 87.8177 227.448 88.3571 227.714 89.0032C227.979 89.6493 228.022 90.3654 227.836 91.0387L217.643 89.1957C216.4 87.2047 216.579 85.1152 217.426 84.751L217.174 78.2721L214.271 44.7534L222.779 40.9546L224.29 40.7128V40.7128Z" fill="#3F3D56"/>
<path d="M161.023 20.1035C160.876 20.1035 160.757 20.1732 160.757 20.259V21.5026C160.757 21.5884 160.876 21.6581 161.023 21.6581C161.169 21.6581 161.288 21.5884 161.288 21.5026V20.259C161.288 20.1732 161.169 20.1035 161.023 20.1035Z" fill="#3F3D56"/>
<path d="M161.023 23.3992C160.876 23.3992 160.757 23.4689 160.757 23.5546V25.9642C160.757 26.0499 160.876 26.1197 161.023 26.1197C161.169 26.1197 161.288 26.0499 161.288 25.9642V23.5546C161.288 23.4689 161.169 23.3992 161.023 23.3992Z" fill="#3F3D56"/>
<path d="M175.823 23.8345C175.745 23.8434 175.674 23.8825 175.624 23.9434C175.575 24.0043 175.551 24.0823 175.558 24.1605V29.2137C175.55 29.2531 175.551 29.2938 175.56 29.333C175.57 29.3721 175.588 29.4085 175.613 29.4398C175.639 29.471 175.671 29.4962 175.707 29.5134C175.743 29.5307 175.783 29.5397 175.823 29.5397C175.864 29.5397 175.903 29.5307 175.94 29.5134C175.976 29.4962 176.008 29.471 176.034 29.4398C176.059 29.4085 176.077 29.3721 176.087 29.333C176.096 29.2938 176.097 29.2531 176.089 29.2137V24.1605C176.096 24.0823 176.072 24.0043 176.022 23.9434C175.973 23.8825 175.901 23.8434 175.823 23.8345Z" fill="#3F3D56"/>
<path d="M160.587 27.2545C160.441 27.2545 160.322 27.3242 160.322 27.41V29.8196C160.322 29.9053 160.441 29.975 160.587 29.975C160.734 29.975 160.853 29.9053 160.853 29.8196V27.41C160.853 27.3242 160.734 27.2545 160.587 27.2545Z" fill="#3F3D56"/>
<path d="M207.119 25.7669C213.154 25.7669 218.047 20.8742 218.047 14.8387C218.047 8.80319 213.154 3.91046 207.119 3.91046C201.083 3.91046 196.19 8.80319 196.19 14.8387C196.19 20.8742 201.083 25.7669 207.119 25.7669Z" fill="#A0616A"/>
<path d="M219.321 19.8599C218.468 21.5673 217.655 22.6352 216.18 23.5896C216.105 23.372 216.045 23.1497 215.999 22.9241C215.842 23.2751 215.689 23.6252 215.528 23.977C214.595 24.498 215.602 23.6941 214.075 24.2767L212.79 22.0716C212.438 21.0248 212.936 19.8848 213.57 18.9789C214.205 18.0768 214.996 17.2497 215.34 16.2008C215.684 15.152 215.378 13.7624 214.347 13.372C213.331 12.9822 212.208 13.7218 211.128 13.5933C209.882 13.4463 209.033 12.1421 208.966 10.8873C208.898 9.63257 209.41 8.4278 209.911 7.27959C208.402 8.3614 203.725 10.2996 201.18 10.3922C201.111 9.59813 200.744 8.85959 200.153 8.32527C200.256 9.04819 200.08 9.7834 199.66 10.381C197.168 10.2532 196.7 13.8733 195.413 12.5624C195.814 12.3603 194.334 7.8614 194.736 7.65927C194.426 6.81228 194.118 5.96775 193.81 5.12568C194.382 5.27001 194.96 5.41724 195.536 5.56078C195.572 5.25288 195.665 4.95451 195.812 4.6813C196.223 4.44706 196.66 4.26249 197.114 4.13146C197.261 4.09235 197.411 4.05245 197.562 4.01995C197.787 3.96995 198.014 3.9329 198.243 3.90901C197.912 3.71687 197.577 3.5292 197.245 3.33338C197.205 3.31091 197.17 3.28765 197.13 3.26518C197.597 2.94447 198.084 2.6552 198.589 2.39927C200.719 1.28526 202.929 0.150121 205.329 0.0112634C206.889 -0.0880315 208.435 0.356971 209.703 1.27034C210.796 2.05576 212.121 2.45411 213.466 2.40236C214.12 2.39738 214.767 2.54147 215.358 2.82372C215.087 3.09609 214.791 3.34215 214.474 3.55858C215.167 3.57659 215.856 3.5954 216.549 3.61711C217.326 4.32383 217.981 5.15357 218.488 6.07306C220.917 10.2233 221.472 15.5604 219.321 19.8599H219.321Z" fill="#2F2E41"/>
<path d="M184.227 190.114C184.144 189.568 183.932 189.051 183.608 188.603C183.285 188.156 182.859 187.793 182.367 187.543C177.747 185.179 172.905 183.276 167.912 181.863L163.239 188.023L166.692 181.523C153.909 178.094 140.473 177.903 127.598 180.968L129.395 185.923L126.46 181.252C120.662 182.71 115.049 184.82 109.727 187.543C109.237 187.794 108.813 188.157 108.49 188.603C108.167 189.049 107.954 189.565 107.869 190.109C107.783 190.652 107.827 191.209 107.997 191.732C108.167 192.256 108.458 192.732 108.847 193.121C110.868 193.245 112.202 195.123 113.533 197.807C114.043 198.311 114.697 198.644 115.404 198.762C116.111 198.88 116.837 198.776 117.483 198.465C126.407 194.22 136.165 192.018 146.047 192.018C155.929 192.018 165.687 194.22 174.611 198.465C175.257 198.776 175.983 198.88 176.69 198.762C177.397 198.644 178.051 198.311 178.561 197.807C179.361 195.637 181.011 194.353 183.247 193.121C183.638 192.734 183.931 192.259 184.101 191.736C184.272 191.213 184.315 190.657 184.227 190.114Z" fill="#744775"/>
<path d="M158.409 211.329C157.385 211.168 156.356 211.028 155.32 210.908L151.261 217.368L154.286 210.798C149.37 210.296 144.419 210.244 139.495 210.642L142.591 217.368L138.423 210.735C136.832 210.886 135.253 211.084 133.685 211.329C133.149 211.408 132.645 211.637 132.233 211.99C131.821 212.343 131.516 212.805 131.355 213.323C131.183 213.845 131.159 214.405 131.287 214.94C131.414 215.475 131.688 215.963 132.078 216.352C133.754 217.994 135.603 220.274 138.64 222.914C138.936 223.214 139.294 223.446 139.689 223.595C140.084 223.743 140.507 223.804 140.927 223.774C142.611 223.649 144.333 223.586 146.047 223.586H146.047C147.761 223.586 149.484 223.649 151.167 223.774C151.588 223.804 152.01 223.743 152.405 223.594C152.8 223.446 153.158 223.214 153.454 222.914C156.591 220.236 158.176 217.781 160.016 216.352C160.406 215.963 160.68 215.475 160.808 214.94C160.935 214.405 160.912 213.845 160.739 213.323C160.578 212.805 160.274 212.343 159.861 211.99C159.449 211.637 158.946 211.408 158.409 211.329Z" fill="#744775"/>
</g>
<defs>
<clipPath id="clip0_5_66">
<rect width="312.413" height="225" fill="white"/>
</clipPath>
</defs>
</svg>
